HIERARCHY
ROOT Hips
{
	OFFSET -14.64140 90.27770 -84.91600
	CHANNELS 6 Xposition Yposition Zposition Zrotation Xrotation Yrotation
	JOINT Spine
	{
		OFFSET 0.00000 13.20850 -1.60436
		CHANNELS 3 Zrotation Xrotation Yrotation
		JOINT Spine1
		{
			OFFSET 0.00000 8.61716 0.00000
			CHANNELS 3 Zrotation Xrotation Yrotation
			JOINT Spine2
			{
				OFFSET 0.00000 8.61717 0.00000
				CHANNELS 3 Zrotation Xrotation Yrotation
				JOINT Spine3
				{
					OFFSET 0.00000 8.61717 0.00000
					CHANNELS 3 Zrotation Xrotation Yrotation
					JOINT Neck
					{
						OFFSET 0.00000 11.07920 1.10792
						CHANNELS 3 Zrotation Xrotation Yrotation
						JOINT Neck1
						{
							OFFSET 0.00000 7.08032 0.00000
							CHANNELS 3 Zrotation Xrotation Yrotation
							JOINT Head
							{
								OFFSET 0.00000 7.08031 0.00000
								CHANNELS 3 Zrotation Xrotation Yrotation
								End site
								{
									OFFSET 0.00000 0.00000 0.00000
								}
							}
						}
					}
					JOINT RightShoulder
					{
						OFFSET -0.01000 7.91373 5.19711
						CHANNELS 3 Zrotation Xrotation Yrotation
						JOINT RightArm
						{
							OFFSET -18.41580 0.00000 0.00000
							CHANNELS 3 Zrotation Xrotation Yrotation
							JOINT RightForeArm
							{
								OFFSET -29.11090 0.00000 0.00000
								CHANNELS 3 Zrotation Xrotation Yrotation
								JOINT RightHand
								{
									OFFSET -24.65040 0.00000 0.00000
									CHANNELS 3 Zrotation Xrotation Yrotation
									JOINT RightHandThumb1
									{
										OFFSET -5.35114 -0.85590 3.97906
										CHANNELS 3 Zrotation Xrotation Yrotation
										JOINT RightHandThumb2
										{
											OFFSET -4.52789 0.00000 0.00000
											CHANNELS 3 Zrotation Xrotation Yrotation
											JOINT RightHandThumb3
											{
												OFFSET -2.46976 0.00000 0.00000
												CHANNELS 3 Zrotation Xrotation Yrotation
												End site
												{
													OFFSET 0.00000 0.00000 0.00000
												}
											}
										}
									}
									JOINT RightHandIndex1
									{
										OFFSET -14.26970 0.00000 2.88139
										CHANNELS 3 Zrotation Xrotation Yrotation
										JOINT RightHandIndex2
										{
											OFFSET -5.48836 0.00000 0.00000
											CHANNELS 3 Zrotation Xrotation Yrotation
											JOINT RightHandIndex3
											{
												OFFSET -3.01859 0.00000 0.00000
												CHANNELS 3 Zrotation Xrotation Yrotation
												End site
												{
													OFFSET 0.00000 0.00000 0.00000
												}
											}
										}
									}
									JOINT RightHandMiddle1
									{
										OFFSET -14.26970 0.00000 -0.09147
										CHANNELS 3 Zrotation Xrotation Yrotation
										JOINT RightHandMiddle2
										{
											OFFSET -6.17441 0.00000 0.00000
											CHANNELS 3 Zrotation Xrotation Yrotation
											JOINT RightHandMiddle3
											{
												OFFSET -3.56743 0.00000 0.00000
												CHANNELS 3 Zrotation Xrotation Yrotation
												End site
												{
													OFFSET 0.00000 0.00000 0.00000
												}
											}
										}
									}
									JOINT RightHandRing1
									{
										OFFSET -12.69180 0.00000 -3.06433
										CHANNELS 3 Zrotation Xrotation Yrotation
										JOINT RightHandRing2
										{
											OFFSET -5.62556 0.00000 0.00000
											CHANNELS 3 Zrotation Xrotation Yrotation
											JOINT RightHandRing3
											{
												OFFSET -3.56744 0.00000 0.00000
												CHANNELS 3 Zrotation Xrotation Yrotation
												End site
												{
													OFFSET 0.00000 0.00000 0.00000
												}
											}
										}
									}
									JOINT RightHandPinky1
									{
										OFFSET -11.11390 0.00000 -6.03719
										CHANNELS 3 Zrotation Xrotation Yrotation
										JOINT RightHandPinky2
										{
											OFFSET -4.52789 0.00000 0.00000
											CHANNELS 3 Zrotation Xrotation Yrotation
											JOINT RightHandPinky3
											{
												OFFSET -2.46976 0.00000 0.00000
												CHANNELS 3 Zrotation Xrotation Yrotation
												End site
												{
													OFFSET 0.00000 0.00000 0.00000
												}
											}
										}
									}
								}
							}
						}
					}
					JOINT LeftShoulder
					{
						OFFSET 0.01000 7.91373 5.19711
						CHANNELS 3 Zrotation Xrotation Yrotation
						JOINT LeftArm
						{
							OFFSET 18.41580 0.00000 0.00000
							CHANNELS 3 Zrotation Xrotation Yrotation
							JOINT LeftForeArm
							{
								OFFSET 29.11090 0.00000 0.00000
								CHANNELS 3 Zrotation Xrotation Yrotation
								JOINT LeftHand
								{
									OFFSET 24.65040 0.00000 0.00000
									CHANNELS 3 Zrotation Xrotation Yrotation
									JOINT LeftHandThumb1
									{
										OFFSET 5.35114 -0.85590 3.97906
										CHANNELS 3 Zrotation Xrotation Yrotation
										JOINT LeftHandThumb2
										{
											OFFSET 4.52789 0.00000 0.00000
											CHANNELS 3 Zrotation Xrotation Yrotation
											JOINT LeftHandThumb3
											{
												OFFSET 2.46977 0.00000 0.00000
												CHANNELS 3 Zrotation Xrotation Yrotation
												End site
												{
													OFFSET 0.00000 0.00000 0.00000
												}
											}
										}
									}
									JOINT LeftHandIndex1
									{
										OFFSET 14.26970 0.00000 2.88139
										CHANNELS 3 Zrotation Xrotation Yrotation
										JOINT LeftHandIndex2
										{
											OFFSET 5.48836 0.00000 0.00000
											CHANNELS 3 Zrotation Xrotation Yrotation
											JOINT LeftHandIndex3
											{
												OFFSET 3.01859 0.00000 0.00000
												CHANNELS 3 Zrotation Xrotation Yrotation
												End site
												{
													OFFSET 0.00000 0.00000 0.00000
												}
											}
										}
									}
									JOINT LeftHandMiddle1
									{
										OFFSET 14.26970 0.00000 -0.09147
										CHANNELS 3 Zrotation Xrotation Yrotation
										JOINT LeftHandMiddle2
										{
											OFFSET 6.17440 0.00000 0.00000
											CHANNELS 3 Zrotation Xrotation Yrotation
											JOINT LeftHandMiddle3
											{
												OFFSET 3.56744 0.00000 0.00000
												CHANNELS 3 Zrotation Xrotation Yrotation
												End site
												{
													OFFSET 0.00000 0.00000 0.00000
												}
											}
										}
									}
									JOINT LeftHandRing1
									{
										OFFSET 12.69180 0.00000 -3.06433
										CHANNELS 3 Zrotation Xrotation Yrotation
										JOINT LeftHandRing2
										{
											OFFSET 5.62556 0.00000 0.00000
											CHANNELS 3 Zrotation Xrotation Yrotation
											JOINT LeftHandRing3
											{
												OFFSET 3.56744 0.00000 0.00000
												CHANNELS 3 Zrotation Xrotation Yrotation
												End site
												{
													OFFSET 0.00000 0.00000 0.00000
												}
											}
										}
									}
									JOINT LeftHandPinky1
									{
										OFFSET 11.11390 0.00000 -6.03719
										CHANNELS 3 Zrotation Xrotation Yrotation
										JOINT LeftHandPinky2
										{
											OFFSET 4.52789 0.00000 0.00000
											CHANNELS 3 Zrotation Xrotation Yrotation
											JOINT LeftHandPinky3
											{
												OFFSET 2.46976 0.00000 0.00000
												CHANNELS 3 Zrotation Xrotation Yrotation
												End site
												{
													OFFSET 0.00000 0.00000 0.00000
												}
											}
										}
									}
								}
							}
						}
					}
					JOINT pCube4
					{
						OFFSET 0.00000 10.91090 1.10792
						CHANNELS 3 Zrotation Xrotation Yrotation
						End site
						{
							OFFSET 0.00000 0.00000 0.00000
						}
					}
				}
			}
		}
	}
	JOINT RightUpLeg
	{
		OFFSET -9.98441 0.00000 0.00000
		CHANNELS 3 Zrotation Xrotation Yrotation
		JOINT RightLeg
		{
			OFFSET 0.00000 -42.11790 0.00000
			CHANNELS 3 Zrotation Xrotation Yrotation
			JOINT RightFoot
			{
				OFFSET 0.00000 -45.00020 -0.00001
				CHANNELS 3 Zrotation Xrotation Yrotation
				JOINT RightForeFoot
				{
					OFFSET 0.00000 -3.74820 0.00000
					CHANNELS 3 Zrotation Xrotation Yrotation
					JOINT RightToeBase
					{
						OFFSET 0.00000 0.06325 14.43120
						CHANNELS 3 Zrotation Xrotation Yrotation
						End site
						{
							OFFSET 0.00000 0.00000 0.00000
						}
					}
				}
			}
		}
	}
	JOINT LeftUpLeg
	{
		OFFSET 9.98441 0.00000 0.00000
		CHANNELS 3 Zrotation Xrotation Yrotation
		JOINT LeftLeg
		{
			OFFSET 0.00000 -42.11800 0.00000
			CHANNELS 3 Zrotation Xrotation Yrotation
			JOINT LeftFoot
			{
				OFFSET 0.00000 -45.00070 0.00000
				CHANNELS 3 Zrotation Xrotation Yrotation
				JOINT LeftForeFoot
				{
					OFFSET 0.00000 -3.74824 0.00000
					CHANNELS 3 Zrotation Xrotation Yrotation
					JOINT LeftToeBase
					{
						OFFSET 0.00000 0.06325 14.43110
						CHANNELS 3 Zrotation Xrotation Yrotation
						End site
						{
							OFFSET 0.00000 0.00000 0.00000
						}
					}
				}
			}
		}
	}
}
MOTION
Frames: 4
Frame Time: 0.050000
-0.009232204079806737 0.04295892345251883 -0.023740558428540656 -0.03601872366435146 0.0183378764937557 -0.010060733015333882 -3.6763577479852763 2.147438283504619 -0.7426806196319534 -1.1987331567167319 3.9461892972842785 0.4587267973431112 -1.363710800176366 -1.4927457050539596 -1.3632349863825106 0.23545002217621125 0.6788829600537225 -0.8189499105491423 0.06689807195500008 11.390929669810907 -0.7690562266224685 0.18760917537750305 -2.038547898076707 -3.442324102259747 0.7395350426053972 -18.594169591050314 -0.3569168862031795 -4.700476953320359 1.6772937050927659 -14.945400083331492 74.53536265893219 24.40808592767278 -0.0011270483564170403 -2.590907311273773 1.8408544741949924 40.275124346790214 19.654287758376384 -0.05968052004807757 -3.736191072498636 4.523057631477727 -0.1226406132195428 -1.5753989163592559 -0.033281036080567455 0.01775159852189864 -56.26810898226971 -0.009403098203283283 0.03306688690309049 -56.28149367631381 -38.73089647458881 -0.029143848646377764 0.026376654708225207 -0.025630155846977497 -0.016274506385055492 0.016077103219738924 -0.037440204320191434 -0.027244615538321502 -0.042149450030501356 -36.714945336956895 -0.0021480660255527076 -0.037959364425128636 0.0347665162391839 0.010931272455439655 -0.020532083305788193 0.004094534114437489 0.016384775871402732 0.012331103558104817 -19.777461722386285 -0.033558200108151984 -0.01972741548056799 -0.004040472807602228 0.025216756354754948 -0.024500662003744678 -0.018383673912568517 -0.03485419309597018 -0.017652934098490156 24.010429344810188 0.039322097840245825 0.012118933112699938 28.89321972823217 0.04620292675875955 0.028806336767774488 28.855755748121222 0.03621155958503689 0.036681378030869134 5.030568966201256 1.183548009508353 12.855255782414462 -71.71302222615176 26.701961464877726 -6.248687073783888 1.3994599076523269 -7.760775092295766 -40.70086550859478 -8.321225262012804 1.433464921735232 2.531449376514598 -0.4739618370914947 0.03838006223328492 -8.1715031411879 0.022824383074441377 0.029861681384260222 44.57863440797864 -0.011296216033498152 -0.03178005952739624 44.53895133533177 12.41547231575712 0.022599699564764267 0.036520034930924004 0.015043639946990615 -0.005023626207177968 0.030485113475877196 0.01319520776537095 0.014761604916621575 -0.01649907232482282 11.10657783964822 -0.04526148263677652 0.0010198087373974206 0.002263779314828868 0.002805355293971482 0.03753811434706218 0.02485478748004765 -0.013591368283305524 0.02828067050962751 4.76452253160837 0.03723178381102865 -0.01921745351540707 0.019945538806398586 -0.037755354664487824 -0.011443600930390829 -0.01534647247039512 0.0051351378520887 -0.004857253653818583 -5.572604132856473 -0.011417118905107325 -0.005438641944001523 -6.725195103467926 -0.04844524545082964 0.0051931087296125 -6.748492821643793 -0.006393715123469247 0.013802436414478824 -0.03718334147248818 0.026987954758168942 0.036170916407972986 8.022586614502696 3.518298143392267 -19.219679945995814 0.029504208681671203 10.39665605700429 0.021567751408185915 -5.6318348083467455 -15.677789586473384 3.2259922911019103 0.04310448822239469 -0.03510997540160035 0.03493754732013814 0.0128022576659152 4.701370451420685 -0.03315955018159676 12.451024250385613 -8.222576466069354 6.859355240715363 0.04469711384122111 46.36374357481682 0.017264958732724378 -4.351697426306059 -14.741604701370626 -3.823548857951579 -0.04353720138490247 -0.04578053044826157 -0.03145345434331007 -0.011662305669522453 -10.724415661902967 -0.024943121411522245 
0.019658718959909945 -0.04409647336219599 -0.04002560774922989 -0.04598101446282267 0.02257794555034959 0.024926242656611964 -3.5231087360815967 2.1725309575156997 -0.7823581253085765 -1.132726440548398 3.93995016738757 0.371765218551292 -1.3429238353613353 -1.437398198041279 -1.225285723418995 0.17283603986772217 0.6686369214331713 -0.8083494233813954 -0.0159531485903038 11.481665078705046 -0.708598681613714 0.19984103856022944 -1.891671615673156 -3.480047349658569 0.6846877017065889 -18.417630240877862 -0.38231866875506276 -4.693520319942319 1.702494630623224 -14.813061311589433 73.88347334515882 24.380601185857206 0.6054843537728642 -2.4322651967188897 1.727120965044149 42.10459023793693 19.810787230627827 -0.09746216123966102 -3.8188528527439853 4.552684058737016 -0.09896222651129331 -1.5569600669731098 -0.032579412677543336 0.001835601046081859 -56.18949692884505 -0.03648054519552809 0.012145050661904766 -56.270887776723335 -38.78838278726459 0.036921759952330456 -0.0015496971122415327 0.0060627596127301574 -0.02156034911586641 0.03135675443137992 -0.009562839055089355 0.013231837009568443 0.047485328381220104 -36.702510435475396 0.031355222804914346 -0.009760434862335774 -0.039699148129105466 -0.016147359411525515 -0.028272267406397038 -0.04808251475699766 -0.009206471508803276 -0.04468680477640591 -19.757180602467727 -0.03920493359408335 -0.012577876674196539 -0.04075216924464578 -0.041850053188980954 -0.04805998886070173 0.03712153248784636 -0.012959314319004647 0.009759413578742543 24.098003486248597 0.03738562551280869 0.030930158441123286 28.91024575181704 0.01298484782702396 0.020791032833132203 28.909889154579993 -0.037152468302638554 -0.008891270046737225 5.041686705354762 1.2200479773924469 12.857206907535105 -71.51120609385222 26.66496720581743 -6.548348450007721 1.6322445829483725 -7.792522299306796 -42.62222508027274 -8.425277505463695 1.5759980737662995 2.352778361371464 -0.47688019999331865 0.05186331219188675 -8.140140043360557 0.01125659995964596 -0.023102548280463098 44.553786773997736 -0.024928095480132972 -0.010374042315561346 44.53074800213507 12.462271492723273 -0.003940622423884074 -0.01725366729558966 0.01919331793531056 -0.006691300934669156 -0.011721762975294888 0.017114679496347845 0.005068786100683569 -0.0453662249596706 11.059362789226352 0.011063530823221333 0.038731493828838566 -0.0228840216870632 -0.024174652213631954 -0.009603064329489278 -0.028173355954161573 0.0220848460635364 -0.019219454215907407 4.735535886765558 0.025537876934857692 -0.04030904397809225 0.03227012812752666 0.03758546153023554 -0.01877684769843878 0.0014241924520676213 0.038925741415778675 -0.016321162484436696 -5.636085321783477 0.007365649009908331 0.0456477268304123 -6.765567412019556 0.02881256616418858 -0.04902313952031339 -6.769149333282551 0.02200909036631225 -0.0015156602464415517 -0.018796365123023902 -0.024754346999922197 -0.022538023044702028 8.017683065673785 3.4979549500002705 -19.225091186654126 0.04032769666189137 10.35079980016874 -0.0014007536380748128 -5.615635868782273 -15.641139884204206 3.1904297879531733 0.03207874669340066 0.016355780250609114 0.02755312598512073 0.022385703942961868 4.650261754466915 -0.022239183218736438 12.508184219743205 -8.249492639134672 6.9297468074208615 -0.009186397977567547 46.42142130926462 -0.031814888173833676 -4.307533083136603 -14.722719441359466 -3.832039600038561 -0.008481783401562379 0.016501761545593303 0.04966711804588617 0.04044397351192848 -10.731302604854573 -0.03869487728866866 
0.0498227687093954 -0.04078104583452555 0.007985925884321033 -0.04611117336442028 -0.032333598079552044 -0.02973037613256559 -3.3763774447373747 2.1936190467792596 -0.8145319169125265 -1.1047941132716788 3.9131257695648163 0.37054622954650046 -1.3358144763663116 -1.503095486871632 -1.178914437612512 0.20047118063209035 0.594433599004863 -0.8469460598798053 0.022243633088141052 11.564329831643732 -0.8215620204878641 0.19741727345507137 -1.6817063607212128 -3.642881329467465 0.6780432684060009 -18.113189088207015 -0.3722823232927435 -4.651906890244455 1.6921207183907625 -14.55829714279833 73.14667244516988 24.359982529549594 1.7590990567935088 -1.770573923719277 1.483864156488254 45.29231553397059 19.717184493746654 -0.12918099759493368 -3.8281773185422567 4.48874026578217 -0.15338625078085613 -1.5826712139974104 -0.014923940538648074 -0.00967472671596119 -56.25687507217985 0.04116376620708318 -0.003172102988854476 -56.19816907287515 -38.73298020220507 0.007182700866714242 0.015156380903078439 0.049927555557335454 -0.04248922472044158 -0.0062236663227122225 0.010274424518954684 -0.04909171143319953 0.04610242939881313 -36.71410796075675 0.03839223920076882 0.014669094877278181 -0.019619683791033134 -0.028741231033120082 -0.02693869372305999 0.01796752522814284 0.02445415778029759 0.01748432877685208 -19.765031389354668 0.01025292606829552 -0.01306000068580745 0.008512695143323605 0.04365144393423347 0.011574444348435546 0.016510743956755666 -0.03788026517929655 -0.020060121986314544 24.09866342365472 0.03091158100372092 -0.008239474158296853 28.882738271997102 -0.025590344274174368 0.0013754858302102468 28.82421985120843 -0.011314433778050042 0.020468909557943272 5.186494479457898 1.2463894678056733 12.756156078879146 -70.59260970901204 26.688617155609627 -7.573979915256358 0.6579134012671314 -7.647932240617634 -46.77513704658771 -8.564780320581237 1.0191539233724667 2.434385590731692 -0.5184615793331294 0.03567204805163999 -8.135456750374143 -0.025487891618097138 0.004793615393058194 44.56368286936415 0.040076203760986376 0.003121490426622412 44.568360213629276 12.48674285187915 -0.03607824181387205 0.04792475944227022 0.012885912506681817 -0.03331926230726269 -0.028397036298749328 0.009088569514925296 -0.006811864008431903 -0.025498411579725905 11.13910815196997 0.029222690882110335 -0.0005605348902800798 -0.00414195180607868 0.04257847134853136 0.02536048942046426 -0.02166561792293259 0.024638528219215566 0.0318153274206474 4.785052948691184 -0.007490246777299954 -0.04927724749281937 0.015041365311117955 0.005383728531117376 0.03045004569694372 -0.035627527492139065 0.045989463859010496 -0.01997784392743308 -5.582816554831476 -0.036430658746140265 0.022829746873656902 -6.75354276008866 -0.023064317745210557 0.030500812373514766 -6.769623287292467 0.018160867650609074 -0.031105025625921823 0.008672417046288494 -0.018558777423908063 0.015071625190686617 8.025092105955167 3.508638015086348 -19.192785228216053 -0.02906337264664065 10.359044281494281 0.031117317830355293 -5.575288615448318 -15.628710630340672 3.1972513864264593 0.016673528420500485 0.04507717140947521 -0.017501960751762097 -0.03232474249463208 4.670949414191815 0.017872971574102847 12.485248960123307 -8.248407356883762 6.866630609205809 -0.022019105030559982 46.39212712175979 -0.00894566772998006 -4.2996703374195775 -14.757933246222471 -3.824800245690517 -0.01238864127804062 -0.04970378924634643 -0.03814642266513649 -0.003484785548257731 -10.742229707114275 -0.01059197981511791 
-0.012840774236787842 0.0372381281368485 0.0454391753125592 0.011194629854655873 -0.006634995116421086 -0.011720475358341607 -3.1738787831950894 2.127779743569293 -0.8121372219923901 -1.0606550608123246 3.8527475494592767 0.3715391231047829 -1.2913560225179923 -1.4745482628802955 -1.129974978953691 0.21402315570836516 0.5319784078729791 -0.8359505522130948 0.0818236786677618 11.680568288459112 -0.9049788863962019 0.15477553981073552 -1.521298034867539 -3.8557172449816326 0.744065717270603 -17.65995030035652 -0.31308866572437566 -4.704441724310463 1.678938503623459 -14.441139466885039 72.58502194990226 24.175867450707628 2.9018263756192813 -0.22804065781658903 1.233423702652209 49.5780913825921 19.396271639118293 -0.14151960295949928 -3.7823500255867595 4.510445507846479 -0.13394881231061914 -1.554622364824148 0.013398411610938445 0.007308293431581044 -56.25980365664993 0.015598449243817763 -0.028686360768767367 -56.22733669932407 -38.80662217268893 -0.019591960562046092 -0.019148504038480122 -0.0327964824604005 -0.008217877984899083 -0.00836809912141778 -0.006116207754448218 -0.023104985705947795 0.0057684186139906665 -36.70439979808568 -0.0005369265594165157 0.026626689000489197 0.049762736532713424 0.03509710131267746 0.032920346140897165 0.007405466487477113 -0.02502033325115366 0.04009429737524749 -19.718735530743754 -0.045977075548792753 0.02310935039542109 0.045041076312401805 -0.04588432437163243 -0.0174335444942237 -0.006255930737896102 -0.008682339212315565 -0.03597103258863942 24.05889837603018 -0.004383575061916199 -0.02344692796674113 28.902371441189256 -0.00903301577580384 0.003750333042363509 28.844056174228598 0.026843534320450207 -0.048338665232899224 5.427132569813292 1.3262520233684734 12.659768040266377 -69.37407305711068 27.197340416030972 -8.924271328106975 -1.724396764205189 -6.953156294775398 -53.82784149741904 -8.753783818191364 -0.04553779711755903 2.8299185479821127 -0.4683750243323155 0.03215607382811172 -8.096962350829143 -0.015673645579137776 0.02067493346467179 44.59249457120889 0.01999867073967478 -0.028278475307570453 44.599760017704995 12.463090591618538 0.010423266435259008 -0.03542959554329358 -0.02818532924049957 0.016977947393641838 0.011788491753733633 0.03163113708694221 -0.0023047737465586595 0.04558652446562682 11.097456550945957 -0.04918719614080512 -0.013658756034248223 -0.00869649743792378 0.030372523029711686 0.006825772282568506 -0.0008824043748142346 0.022663182873949885 0.008009072605111352 4.794909502146947 -0.009192462877029607 0.0256744123645416 -0.03324218249211192 -0.038458361250015526 -0.005708415255267184 0.037449258471615086 -0.036649346849274754 -0.00837561225744934 -5.5970474643068435 0.03448166049852568 0.0231132226817512 -6.734956247859197 -0.019902650176501866 0.025122532517623277 -6.71080859548719 -0.0010435821244669642 -0.011603114591339891 0.00043399595484021813 -0.0024627544722700167 -0.015060113952877286 8.010558158502212 3.5196314197908074 -19.21422211952791 -0.03144676554579846 10.42718280320636 0.018228561176810962 -5.602707396485955 -15.642578326872476 3.159838284761276 0.04509630057127381 0.017144988609897133 -0.029496958100495303 0.015318371414414238 4.6956935298687155 0.03288209926887025 12.424371751683678 -8.236123697969976 6.926542219770318 -0.01411000220243819 46.32950581315074 0.02577061994630198 -4.349234830646338 -14.774452943637975 -3.8092773468071632 -0.01966017823653669 -0.047225234878566336 -0.02479674022866373 -0.03978848011192881 -10.718247494104629 0.011765945319395874 
